<mxfile host="app.diagrams.net" agent="Mozilla/5.0 (X11; Linux x86_64; rv:109.0) Gecko/20100101 Firefox/115.0" version="24.7.17">
  <diagram name="第 1 页" id="aJdtGroRIL__ZHjgtRHr">
    <mxGraphModel dx="813" dy="900" grid="1" gridSize="10" guides="1" tooltips="1" connect="1" arrows="1" fold="1" page="1" pageScale="1" pageWidth="827" pageHeight="1169" math="0" shadow="0">
      <root>
        <mxCell id="0" />
        <mxCell id="1" parent="0" />
        <mxCell id="-Ixc3mLPqkYE0-Hi2vGX-1" value="Regresser" style="rounded=0;whiteSpace=wrap;html=1;" vertex="1" parent="1">
          <mxGeometry x="400" y="170" width="120" height="60" as="geometry" />
        </mxCell>
        <mxCell id="-Ixc3mLPqkYE0-Hi2vGX-3" style="edgeStyle=none;curved=1;rounded=0;orthogonalLoop=1;jettySize=auto;html=1;fontSize=12;startSize=8;endSize=8;endArrow=open;endFill=0;" edge="1" parent="1" source="-Ixc3mLPqkYE0-Hi2vGX-2" target="-Ixc3mLPqkYE0-Hi2vGX-1">
          <mxGeometry relative="1" as="geometry" />
        </mxCell>
        <mxCell id="-Ixc3mLPqkYE0-Hi2vGX-5" value="" style="edgeStyle=none;curved=1;rounded=0;orthogonalLoop=1;jettySize=auto;html=1;fontSize=12;startSize=8;endSize=8;endArrow=open;endFill=0;" edge="1" parent="1" source="-Ixc3mLPqkYE0-Hi2vGX-2" target="-Ixc3mLPqkYE0-Hi2vGX-4">
          <mxGeometry relative="1" as="geometry" />
        </mxCell>
        <mxCell id="-Ixc3mLPqkYE0-Hi2vGX-2" value="Trainer" style="rounded=0;whiteSpace=wrap;html=1;" vertex="1" parent="1">
          <mxGeometry x="400" y="330" width="120" height="60" as="geometry" />
        </mxCell>
        <mxCell id="-Ixc3mLPqkYE0-Hi2vGX-4" value="&lt;div&gt;auto_score&lt;br&gt;&lt;/div&gt;&lt;div&gt;calculatescore&lt;/div&gt;" style="rounded=0;whiteSpace=wrap;html=1;" vertex="1" parent="1">
          <mxGeometry x="650" y="330" width="120" height="60" as="geometry" />
        </mxCell>
        <mxCell id="-Ixc3mLPqkYE0-Hi2vGX-7" style="edgeStyle=none;curved=1;rounded=0;orthogonalLoop=1;jettySize=auto;html=1;fontSize=12;startSize=8;endSize=8;endArrow=openThin;endFill=0;" edge="1" parent="1" source="-Ixc3mLPqkYE0-Hi2vGX-6" target="-Ixc3mLPqkYE0-Hi2vGX-2">
          <mxGeometry relative="1" as="geometry" />
        </mxCell>
        <mxCell id="-Ixc3mLPqkYE0-Hi2vGX-6" value="&lt;div&gt;Tester&lt;/div&gt;" style="rounded=0;whiteSpace=wrap;html=1;" vertex="1" parent="1">
          <mxGeometry x="140" y="170" width="120" height="60" as="geometry" />
        </mxCell>
      </root>
    </mxGraphModel>
  </diagram>
</mxfile>
